<?xml version="1.0" encoding="UTF-8"?>
<!DOCTYPE svg PUBLIC "-//W3C//DTD SVG 1.1//EN" "http://www.w3.org/Graphics/SVG/1.1/DTD/svg11.dtd">
<svg xmlns="http://www.w3.org/2000/svg" version="1.1" width="300px" height="300px" style="shape-rendering:geometricPrecision; text-rendering:geometricPrecision; image-rendering:optimizeQuality; fill-rule:evenodd; clip-rule:evenodd" xmlns:xlink="http://www.w3.org/1999/xlink">
<g><path style="opacity:1" fill="#fec92e" d="M -0.5,-0.5 C 99.5,-0.5 199.5,-0.5 299.5,-0.5C 299.5,48.8333 299.5,98.1667 299.5,147.5C 267.943,148.147 236.61,147.481 205.5,145.5C 204.029,141.347 201.363,138.013 197.5,135.5C 198.601,133.898 200.101,132.898 202,132.5C 204.478,133.332 206.978,133.499 209.5,133C 205.395,131.781 201.395,130.281 197.5,128.5C 198.687,127.481 199.687,126.314 200.5,125C 203.5,124.667 206.5,124.333 209.5,124C 205.863,123.041 202.697,121.208 200,118.5C 199.333,114.167 199.333,109.833 200,105.5C 202.597,97.8485 204.43,90.0152 205.5,82C 205.792,78.7857 204.959,75.9523 203,73.5C 194.945,66.0232 185.778,60.1899 175.5,56C 166.996,54.2568 160.33,56.9235 155.5,64C 146.458,66.329 138.792,64.329 132.5,58C 127.065,55.0292 121.398,54.6959 115.5,57C 109.744,60.0497 104.077,63.383 98.5,67C 95.5228,70.0639 92.6895,73.2306 90,76.5C 89.3333,80.1667 89.3333,83.8333 90,87.5C 92.1529,95.4438 93.9863,103.444 95.5,111.5C 95.1667,113.5 94.8333,115.5 94.5,117.5C 91.3445,120.659 87.6778,122.993 83.5,124.5C 87.1351,124.521 90.8018,124.854 94.5,125.5C 95.2868,126.242 95.9535,127.075 96.5,128C 93.2214,130.411 89.5548,132.078 85.5,133C 87.8344,133.339 90.1678,133.172 92.5,132.5C 94.7247,132.305 96.3913,133.139 97.5,135C 93.5184,138.139 90.5184,141.972 88.5,146.5C 58.907,147.492 29.2403,147.825 -0.5,147.5C -0.5,98.1667 -0.5,48.8333 -0.5,-0.5 Z"/></g>
<g><path style="opacity:1" fill="#927d94" d="M 136.5,15.5 C 135.974,17.2303 134.974,18.5637 133.5,19.5C 133.554,17.368 134.554,16.0347 136.5,15.5 Z"/></g>
<g><path style="opacity:1" fill="#534dee" d="M 133.5,19.5 C 134.974,18.5637 135.974,17.2303 136.5,15.5C 143.874,12.7198 151.208,12.8865 158.5,16C 162.069,20.5911 162.403,25.4244 159.5,30.5C 154.973,32.9163 151.64,36.4163 149.5,41C 144.008,41.4859 142.175,38.9859 144,33.5C 145.667,30.5 148,28.1667 151,26.5C 151.781,25.0563 151.614,23.723 150.5,22.5C 145.949,20.6265 142.782,21.9598 141,26.5C 138.413,29.0341 135.747,29.0341 133,26.5C 132.204,23.9615 132.371,21.6282 133.5,19.5 Z"/></g>
<g><path style="opacity:1" fill="#564ee1" d="M 144.5,44.5 C 151.004,44.1377 152.671,46.6377 149.5,52C 147.559,52.7429 145.726,52.5762 144,51.5C 143.444,49.1152 143.61,46.7819 144.5,44.5 Z"/></g>
<g><path style="opacity:1" fill="#4c4a42" d="M 205.5,145.5 C 205.5,145.833 205.5,146.167 205.5,146.5C 204.833,146.167 204.167,145.833 203.5,145.5C 199.808,138.011 193.808,135.177 185.5,137C 179.898,139.379 176.565,143.546 175.5,149.5C 175.167,149.5 174.833,149.5 174.5,149.5C 174.5,148.167 174.5,146.833 174.5,145.5C 175.252,141.16 177.586,137.993 181.5,136C 186.5,135 191.5,134 196.5,133C 196.833,132.667 197.167,132.333 197.5,132C 194.635,131.817 191.969,131.317 189.5,130.5C 190.398,129.842 191.398,129.176 192.5,128.5C 191.253,126.958 191.253,125.458 192.5,124C 195.101,123.08 197.768,122.413 200.5,122C 199.206,119.913 198.039,117.746 197,115.5C 197.325,105.443 194.991,96.1096 190,87.5C 188.629,85.9586 187.129,84.6253 185.5,83.5C 175.4,71.626 162.4,65.9593 146.5,66.5C 121.799,67.7071 105.632,80.0404 98,103.5C 97.6667,108.167 97.3333,112.833 97,117.5C 96.3632,119.303 95.1965,120.636 93.5,121.5C 96.3406,122.975 99.3406,124.141 102.5,125C 101.167,125.333 99.8333,125.667 98.5,126C 100.349,127.68 102.349,129.18 104.5,130.5C 102.234,131.314 99.9005,131.814 97.5,132C 98.1667,132.667 98.8333,133.333 99.5,134C 107.432,133.095 113.932,135.595 119,141.5C 119.977,143.74 120.477,146.073 120.5,148.5C 120.5,148.833 120.5,149.167 120.5,149.5C 119.833,149.5 119.167,149.5 118.5,149.5C 118.342,143.369 115.342,139.202 109.5,137C 102.351,134.959 96.6845,136.792 92.5,142.5C 91.4548,144.77 90.1214,146.77 88.5,148.5C 88.5,147.833 88.5,147.167 88.5,146.5C 90.5184,141.972 93.5184,138.139 97.5,135C 96.3913,133.139 94.7247,132.305 92.5,132.5C 90.1678,133.172 87.8344,133.339 85.5,133C 89.5548,132.078 93.2214,130.411 96.5,128C 95.9535,127.075 95.2868,126.242 94.5,125.5C 90.8018,124.854 87.1351,124.521 83.5,124.5C 87.6778,122.993 91.3445,120.659 94.5,117.5C 94.8333,115.5 95.1667,113.5 95.5,111.5C 93.9863,103.444 92.1529,95.4438 90,87.5C 89.3333,83.8333 89.3333,80.1667 90,76.5C 92.6895,73.2306 95.5228,70.0639 98.5,67C 104.077,63.383 109.744,60.0497 115.5,57C 121.398,54.6959 127.065,55.0292 132.5,58C 138.792,64.329 146.458,66.329 155.5,64C 160.33,56.9235 166.996,54.2568 175.5,56C 185.778,60.1899 194.945,66.0232 203,73.5C 204.959,75.9523 205.792,78.7857 205.5,82C 204.43,90.0152 202.597,97.8485 200,105.5C 199.333,109.833 199.333,114.167 200,118.5C 202.697,121.208 205.863,123.041 209.5,124C 206.5,124.333 203.5,124.667 200.5,125C 199.687,126.314 198.687,127.481 197.5,128.5C 201.395,130.281 205.395,131.781 209.5,133C 206.978,133.499 204.478,133.332 202,132.5C 200.101,132.898 198.601,133.898 197.5,135.5C 201.363,138.013 204.029,141.347 205.5,145.5 Z"/></g>
<g><path style="opacity:1" fill="#749056" d="M 185.5,83.5 C 187.129,84.6253 188.629,85.9586 190,87.5C 194.991,96.1096 197.325,105.443 197,115.5C 198.039,117.746 199.206,119.913 200.5,122C 197.768,122.413 195.101,123.08 192.5,124C 191.253,125.458 191.253,126.958 192.5,128.5C 191.398,129.176 190.398,129.842 189.5,130.5C 183.824,130.666 178.157,130.499 172.5,130C 170.385,129.443 168.385,128.609 166.5,127.5C 165.893,127.624 165.56,127.957 165.5,128.5C 163.621,127.659 161.621,127.325 159.5,127.5C 159.918,126.778 160.584,126.278 161.5,126C 155.667,122.833 151.167,118.333 148,112.5C 146.428,105.551 148.261,99.7177 153.5,95C 157.241,92.2677 161.241,89.9343 165.5,88C 172.515,86.8312 179.182,85.3312 185.5,83.5 Z"/></g>
<g><path style="opacity:1" fill="#4c5547" d="M 157.5,111.5 C 157.694,108.67 158.361,106.004 159.5,103.5C 162.223,102.648 164.89,101.481 167.5,100C 175.392,98.2222 181.892,100.389 187,106.5C 189.591,114.059 187.424,119.892 180.5,124C 172.139,127.111 164.806,125.611 158.5,119.5C 156.561,116.862 156.227,114.196 157.5,111.5 Z"/></g>
<g><path style="opacity:1" fill="#ebedee" d="M 157.5,111.5 C 165.633,98.2304 175.133,97.2304 186,108.5C 186.563,118.273 181.896,123.273 172,123.5C 166.268,123.769 161.935,121.436 159,116.5C 157.991,114.975 157.491,113.308 157.5,111.5 Z"/></g>
<g><path style="opacity:1" fill="#196968" d="M 167.5,105.5 C 174.079,103.789 178.079,106.122 179.5,112.5C 179.473,117.358 176.973,119.692 172,119.5C 167.895,118.842 165.728,116.342 165.5,112C 165.482,109.558 166.149,107.392 167.5,105.5 Z"/></g>
<g><path style="opacity:1" fill="#c7cfa7" d="M 92.5,85.5 C 95.2514,87.5779 98.2514,89.2446 101.5,90.5C 99.1394,93.8878 97.3061,97.5544 96,101.5C 93.8849,96.3731 92.7183,91.0398 92.5,85.5 Z"/></g>
<g><path style="opacity:1" fill="#c8d1a7" d="M 201.5,85.5 C 202.46,91.0328 201.46,96.3661 198.5,101.5C 197.408,97.552 195.742,93.8853 193.5,90.5C 196.716,89.5997 199.382,87.933 201.5,85.5 Z"/></g>
<g><path style="opacity:1" fill="#c5daa9" d="M 119.5,57.5 C 121.199,57.3398 122.866,57.5065 124.5,58C 117.62,66.9243 110.62,75.7577 103.5,84.5C 101.936,86.603 99.9362,87.4363 97.5,87C 94.2294,84.112 92.396,80.612 92,76.5C 99.9904,68.3228 109.157,61.9895 119.5,57.5 Z"/></g>
<g><path style="opacity:1" fill="#c4daa9" d="M 170.5,58.5 C 171.946,57.3871 173.613,57.2204 175.5,58C 183.493,61.3255 190.826,65.6588 197.5,71C 205.296,77.0046 204.796,82.5046 196,87.5C 194.51,86.6831 193.01,85.8498 191.5,85C 184.664,76.0017 177.664,67.1684 170.5,58.5 Z"/></g>
<g><path style="opacity:1" fill="#c7ddaa" d="M 185.5,83.5 C 179.182,85.3312 172.515,86.8312 165.5,88C 161.241,89.9343 157.241,92.2677 153.5,95C 148.261,99.7177 146.428,105.551 148,112.5C 151.167,118.333 155.667,122.833 161.5,126C 160.584,126.278 159.918,126.778 159.5,127.5C 159.5,127.833 159.5,128.167 159.5,128.5C 157.14,130.137 154.974,132.137 153,134.5C 151.263,133.38 149.429,132.38 147.5,131.5C 142.039,135.484 136.039,136.484 129.5,134.5C 128.304,134.846 128.304,135.346 129.5,136C 135.942,138.294 141.942,137.461 147.5,133.5C 153.053,137.944 159.053,138.611 165.5,135.5C 166.714,133.141 166.714,130.808 165.5,128.5C 165.56,127.957 165.893,127.624 166.5,127.5C 168.385,128.609 170.385,129.443 172.5,130C 178.157,130.499 183.824,130.666 189.5,130.5C 191.969,131.317 194.635,131.817 197.5,132C 197.167,132.333 196.833,132.667 196.5,133C 191.5,134 186.5,135 181.5,136C 177.586,137.993 175.252,141.16 174.5,145.5C 173.596,146.209 173.263,147.209 173.5,148.5C 155.833,148.5 138.167,148.5 120.5,148.5C 120.477,146.073 119.977,143.74 119,141.5C 113.932,135.595 107.432,133.095 99.5,134C 98.8333,133.333 98.1667,132.667 97.5,132C 99.9005,131.814 102.234,131.314 104.5,130.5C 102.349,129.18 100.349,127.68 98.5,126C 99.8333,125.667 101.167,125.333 102.5,125C 99.3406,124.141 96.3406,122.975 93.5,121.5C 95.1965,120.636 96.3632,119.303 97,117.5C 97.3333,112.833 97.6667,108.167 98,103.5C 105.632,80.0404 121.799,67.7071 146.5,66.5C 162.4,65.9593 175.4,71.626 185.5,83.5 Z"/></g>
<g><path style="opacity:1" fill="#474c42" d="M 128.5,101.5 C 118.891,99.3094 111.891,102.476 107.5,111C 109.657,120.739 115.657,125.072 125.5,124C 128.553,122.473 131.553,120.973 134.5,119.5C 133.185,122.006 131.185,123.839 128.5,125C 119.039,127.63 111.872,124.797 107,116.5C 106.154,106.169 110.987,100.502 121.5,99.5C 123.5,99.6667 125.5,99.8333 127.5,100C 128.056,100.383 128.389,100.883 128.5,101.5 Z"/></g>
<g><path style="opacity:1" fill="#3a3f36" d="M 128.5,101.5 C 134.891,103.941 138.058,108.608 138,115.5C 137.051,117.093 135.885,118.426 134.5,119.5C 136.086,116.729 136.586,113.729 136,110.5C 133.947,107.019 131.447,104.019 128.5,101.5 Z"/></g>
<g><path style="opacity:1" fill="#eaedee" d="M 128.5,101.5 C 131.447,104.019 133.947,107.019 136,110.5C 136.586,113.729 136.086,116.729 134.5,119.5C 131.553,120.973 128.553,122.473 125.5,124C 115.657,125.072 109.657,120.739 107.5,111C 111.891,102.476 118.891,99.3094 128.5,101.5 Z"/></g>
<g><path style="opacity:1" fill="#156769" d="M 119.5,105.5 C 126.451,104.619 129.618,107.619 129,114.5C 126.612,119.226 122.778,120.726 117.5,119C 115.477,115.817 114.977,112.317 116,108.5C 117.145,107.364 118.312,106.364 119.5,105.5 Z"/></g>
<g><path style="opacity:1" fill="#d8c4aa" d="M 165.5,58.5 C 168.195,58.933 170.362,60.2663 172,62.5C 174,65.1667 176,67.8333 178,70.5C 179.708,75.1157 178.541,75.2824 174.5,71C 169.501,68.6275 164.334,66.7941 159,65.5C 158.508,64.451 158.674,63.451 159.5,62.5C 161.565,61.1433 163.565,59.81 165.5,58.5 Z"/></g>
<g><path style="opacity:1" fill="#ddc9ac" d="M 127.5,58.5 C 131.34,59.2524 134.34,61.2524 136.5,64.5C 128.69,67.031 121.356,70.1977 114.5,74C 118.351,68.3251 122.685,63.1584 127.5,58.5 Z"/></g>
<g><path style="opacity:1" fill="#4c4539" d="M 159.5,127.5 C 161.621,127.325 163.621,127.659 165.5,128.5C 166.714,130.808 166.714,133.141 165.5,135.5C 159.053,138.611 153.053,137.944 147.5,133.5C 141.942,137.461 135.942,138.294 129.5,136C 128.304,135.346 128.304,134.846 129.5,134.5C 136.039,136.484 142.039,135.484 147.5,131.5C 149.429,132.38 151.263,133.38 153,134.5C 154.974,132.137 157.14,130.137 159.5,128.5C 159.5,128.167 159.5,127.833 159.5,127.5 Z"/></g>
<g><path style="opacity:1" fill="#e09199" d="M 159.5,128.5 C 165.596,128.715 166.762,131.049 163,135.5C 162.427,128.963 161.593,128.963 160.5,135.5C 159.167,135.5 157.833,135.5 156.5,135.5C 156.703,132.767 157.703,130.434 159.5,128.5 Z"/></g>
<g><path style="opacity:1" fill="#c4daab" d="M 203.5,145.5 C 203.5,146.5 203.5,147.5 203.5,148.5C 202.5,148.5 201.5,148.5 200.5,148.5C 200.167,144.5 199.833,144.5 199.5,148.5C 198.5,148.5 197.5,148.5 196.5,148.5C 196.5,147.167 196.5,145.833 196.5,144.5C 195.5,144.5 194.5,144.5 193.5,144.5C 193.5,145.833 193.5,147.167 193.5,148.5C 191.167,148.5 188.833,148.5 186.5,148.5C 186.778,146.654 186.111,145.32 184.5,144.5C 183.548,146.045 183.215,147.712 183.5,149.5C 180.833,149.5 178.167,149.5 175.5,149.5C 176.565,143.546 179.898,139.379 185.5,137C 193.808,135.177 199.808,138.011 203.5,145.5 Z"/></g>
<g><path style="opacity:1" fill="#c4d8ac" d="M 118.5,149.5 C 115.615,149.806 112.948,149.473 110.5,148.5C 109.833,143.167 109.167,143.167 108.5,148.5C 105.833,148.5 103.167,148.5 100.5,148.5C 99.8333,143.167 99.1667,143.167 98.5,148.5C 96.5,148.5 94.5,148.5 92.5,148.5C 92.5,146.5 92.5,144.5 92.5,142.5C 96.6845,136.792 102.351,134.959 109.5,137C 115.342,139.202 118.342,143.369 118.5,149.5 Z"/></g>
<g><path style="opacity:1" fill="#e8ca53" d="M 88.5,146.5 C 88.5,147.167 88.5,147.833 88.5,148.5C 58.8333,148.5 29.1667,148.5 -0.5,148.5C -0.5,148.167 -0.5,147.833 -0.5,147.5C 29.2403,147.825 58.907,147.492 88.5,146.5 Z"/></g>
<g><path style="opacity:1" fill="#2b2d21" d="M 110.5,148.5 C 109.833,148.5 109.167,148.5 108.5,148.5C 109.167,143.167 109.833,143.167 110.5,148.5 Z"/></g>
<g><path style="opacity:1" fill="#e7cb56" d="M 205.5,145.5 C 236.61,147.481 267.943,148.147 299.5,147.5C 299.5,147.833 299.5,148.167 299.5,148.5C 267.816,149.159 236.482,148.493 205.5,146.5C 205.5,146.167 205.5,145.833 205.5,145.5 Z"/></g>
<g><path style="opacity:1" fill="#5d8c8b" d="M 92.5,142.5 C 92.5,144.5 92.5,146.5 92.5,148.5C 94.5,148.5 96.5,148.5 98.5,148.5C 99.1667,143.167 99.8333,143.167 100.5,148.5C 103.167,148.5 105.833,148.5 108.5,148.5C 72.3372,149.498 36.0038,149.832 -0.5,149.5C -0.5,149.167 -0.5,148.833 -0.5,148.5C 29.1667,148.5 58.8333,148.5 88.5,148.5C 90.1214,146.77 91.4548,144.77 92.5,142.5 Z"/></g>
<g><path style="opacity:1" fill="#92c2c0" d="M 174.5,145.5 C 174.5,146.833 174.5,148.167 174.5,149.5C 156.5,149.5 138.5,149.5 120.5,149.5C 120.5,149.167 120.5,148.833 120.5,148.5C 138.167,148.5 155.833,148.5 173.5,148.5C 173.263,147.209 173.596,146.209 174.5,145.5 Z"/></g>
<g><path style="opacity:1" fill="#738987" d="M 203.5,148.5 C 197.021,149.491 190.354,149.824 183.5,149.5C 183.215,147.712 183.548,146.045 184.5,144.5C 186.111,145.32 186.778,146.654 186.5,148.5C 188.833,148.5 191.167,148.5 193.5,148.5C 193.5,147.167 193.5,145.833 193.5,144.5C 194.5,144.5 195.5,144.5 196.5,144.5C 196.5,145.833 196.5,147.167 196.5,148.5C 197.5,148.5 198.5,148.5 199.5,148.5C 199.833,144.5 200.167,144.5 200.5,148.5C 201.5,148.5 202.5,148.5 203.5,148.5 Z"/></g>
<g><path style="opacity:1" fill="#0276d0" d="M 108.5,148.5 C 109.167,148.5 109.833,148.5 110.5,148.5C 112.948,149.473 115.615,149.806 118.5,149.5C 125.279,150.983 132.279,151.65 139.5,151.5C 140.833,154.167 140.833,156.833 139.5,159.5C 138.5,159.5 137.5,159.5 136.5,159.5C 136.338,161.527 136.505,163.527 137,165.5C 137.219,164.062 137.719,162.729 138.5,161.5C 139.167,164.833 139.833,168.167 140.5,171.5C 141.182,170.757 141.849,170.091 142.5,169.5C 142.5,171.5 142.5,173.5 142.5,175.5C 140.895,182.603 140.228,189.937 140.5,197.5C 141.5,197.5 142.5,197.5 143.5,197.5C 143.833,198.5 144.5,199.167 145.5,199.5C 145.791,200.649 146.624,201.316 148,201.5C 149.446,200.921 150.613,200.921 151.5,201.5C 150.167,202.5 148.833,203.5 147.5,204.5C 146.109,203.355 144.776,203.355 143.5,204.5C 146.028,205.816 146.028,206.983 143.5,208C 145.384,208.216 147.051,208.883 148.5,210C 144.742,210.313 141.076,209.813 137.5,208.5C 134.08,206.933 130.746,205.1 127.5,203C 113.681,203.32 101.848,208.486 92,218.5C 87.1302,224.804 86.1302,231.804 89,239.5C 93.0661,247.609 94.3994,256.275 93,265.5C 91.2081,269.128 88.3747,271.461 84.5,272.5C 86.396,273.466 88.396,273.799 90.5,273.5C 89.9084,276.127 89.5751,278.794 89.5,281.5C 86.1016,281.18 82.7683,281.513 79.5,282.5C 81.4233,283.308 83.4233,283.808 85.5,284C 84.5,284.833 83.5,285.667 82.5,286.5C 84.4211,290.419 83.4211,293.253 79.5,295C 81.8991,295.711 84.2324,295.544 86.5,294.5C 88.7725,295.375 89.7725,297.042 89.5,299.5C 59.5,299.5 29.5,299.5 -0.5,299.5C -0.5,249.5 -0.5,199.5 -0.5,149.5C 36.0038,149.832 72.3372,149.498 108.5,148.5 Z"/></g>
<g><path style="opacity:1" fill="#0676cf" d="M 203.5,145.5 C 204.167,145.833 204.833,146.167 205.5,146.5C 236.482,148.493 267.816,149.159 299.5,148.5C 299.5,198.833 299.5,249.167 299.5,299.5C 268.167,299.5 236.833,299.5 205.5,299.5C 205.365,297.446 206.032,295.779 207.5,294.5C 210.113,295.435 212.779,295.602 215.5,295C 213.777,294.477 212.444,293.477 211.5,292C 213.544,288.349 214.878,284.849 215.5,281.5C 212.5,281.5 209.5,281.5 206.5,281.5C 201.533,275.921 202.866,272.754 210.5,272C 204.256,270.396 201.256,266.229 201.5,259.5C 201.872,253.548 203.372,247.881 206,242.5C 207.179,236.199 207.513,229.865 207,223.5C 204.232,219.727 201.065,216.227 197.5,213C 190.526,208.897 183.193,205.563 175.5,203C 167.817,202.325 161.483,204.992 156.5,211C 150.833,211.667 145.167,211.667 139.5,211C 138.619,210.292 137.953,209.458 137.5,208.5C 141.076,209.813 144.742,210.313 148.5,210C 147.051,208.883 145.384,208.216 143.5,208C 146.028,206.983 146.028,205.816 143.5,204.5C 144.776,203.355 146.109,203.355 147.5,204.5C 148.833,203.5 150.167,202.5 151.5,201.5C 150.613,200.921 149.446,200.921 148,201.5C 146.624,201.316 145.791,200.649 145.5,199.5C 150.659,199.864 152.492,197.53 151,192.5C 145.638,189.329 143.138,190.996 143.5,197.5C 142.5,197.5 141.5,197.5 140.5,197.5C 140.228,189.937 140.895,182.603 142.5,175.5C 143.153,179.093 143.986,182.759 145,186.5C 146.667,187.833 148.333,187.833 150,186.5C 151.328,179.436 152.161,172.27 152.5,165C 152.464,162.906 152.131,160.906 151.5,159C 148.833,158.333 146.167,158.333 143.5,159C 142.544,162.394 142.211,165.894 142.5,169.5C 141.849,170.091 141.182,170.757 140.5,171.5C 139.833,168.167 139.167,164.833 138.5,161.5C 137.719,162.729 137.219,164.062 137,165.5C 136.505,163.527 136.338,161.527 136.5,159.5C 137.5,159.5 138.5,159.5 139.5,159.5C 140.833,156.833 140.833,154.167 139.5,151.5C 132.279,151.65 125.279,150.983 118.5,149.5C 119.167,149.5 119.833,149.5 120.5,149.5C 138.5,149.5 156.5,149.5 174.5,149.5C 174.833,149.5 175.167,149.5 175.5,149.5C 178.167,149.5 180.833,149.5 183.5,149.5C 190.354,149.824 197.021,149.491 203.5,148.5C 203.5,147.5 203.5,146.5 203.5,145.5 Z"/></g>
<g><path style="opacity:1" fill="#f15914" d="M 142.5,175.5 C 142.5,173.5 142.5,171.5 142.5,169.5C 142.211,165.894 142.544,162.394 143.5,159C 146.167,158.333 148.833,158.333 151.5,159C 152.131,160.906 152.464,162.906 152.5,165C 152.161,172.27 151.328,179.436 150,186.5C 148.333,187.833 146.667,187.833 145,186.5C 143.986,182.759 143.153,179.093 142.5,175.5 Z"/></g>
<g><path style="opacity:1" fill="#ec5b17" d="M 145.5,199.5 C 144.5,199.167 143.833,198.5 143.5,197.5C 143.138,190.996 145.638,189.329 151,192.5C 152.492,197.53 150.659,199.864 145.5,199.5 Z"/></g>
<g><path style="opacity:1" fill="#484650" d="M 137.5,208.5 C 137.953,209.458 138.619,210.292 139.5,211C 145.167,211.667 150.833,211.667 156.5,211C 161.483,204.992 167.817,202.325 175.5,203C 183.193,205.563 190.526,208.897 197.5,213C 201.065,216.227 204.232,219.727 207,223.5C 207.513,229.865 207.179,236.199 206,242.5C 203.372,247.881 201.872,253.548 201.5,259.5C 201.256,266.229 204.256,270.396 210.5,272C 202.866,272.754 201.533,275.921 206.5,281.5C 212.269,285.089 212.602,289.422 207.5,294.5C 206.032,295.779 205.365,297.446 205.5,299.5C 204.833,299.5 204.167,299.5 203.5,299.5C 203.357,297.738 203.691,296.071 204.5,294.5C 206.705,293.129 208.372,291.296 209.5,289C 208.571,286.091 206.571,284.925 203.5,285.5C 205.286,276.604 202.286,274.271 194.5,278.5C 187.837,273.371 184.504,275.038 184.5,283.5C 178.933,282.753 177.1,285.087 179,290.5C 182.085,292.887 183.918,295.887 184.5,299.5C 182.167,299.5 179.833,299.5 177.5,299.5C 178.335,298.057 179.668,297.057 181.5,296.5C 179.476,294.31 177.643,291.977 176,289.5C 175.503,286.854 175.336,284.187 175.5,281.5C 178.167,281.5 180.833,281.5 183.5,281.5C 183.169,277.495 184.503,274.162 187.5,271.5C 189.67,273.086 192.004,274.42 194.5,275.5C 197.465,274.349 200.131,272.682 202.5,270.5C 201.855,269.354 201.022,268.354 200,267.5C 200.315,247.388 192.148,231.888 175.5,221C 166.799,216.324 157.466,213.824 147.5,213.5C 141.365,213.379 135.365,214.212 129.5,216C 125.3,218.338 120.967,220.172 116.5,221.5C 114.369,223.611 112.702,225.944 111.5,228.5C 110.5,228.5 109.5,228.5 108.5,228.5C 103.7,234.844 99.8666,241.844 97,249.5C 96.7585,255.884 96.0918,262.218 95,268.5C 91.7499,270.437 91.9166,272.104 95.5,273.5C 99.9342,275.205 103.934,274.539 107.5,271.5C 109.84,274.333 111.507,277.499 112.5,281C 114.81,281.497 117.143,281.663 119.5,281.5C 119.664,284.187 119.497,286.854 119,289.5C 116.634,292.243 114.8,295.243 113.5,298.5C 114.791,298.263 115.791,298.596 116.5,299.5C 114.5,299.5 112.5,299.5 110.5,299.5C 110.343,298.127 110.51,296.793 111,295.5C 113.715,293.236 115.549,290.402 116.5,287C 116.415,285.893 116.081,284.893 115.5,284C 113.866,283.506 112.199,283.34 110.5,283.5C 110.295,275.562 107.129,273.895 101,278.5C 93.2656,273.693 90.0989,276.027 91.5,285.5C 88.7118,285.077 86.7118,286.077 85.5,288.5C 86.4431,291.109 88.1097,293.109 90.5,294.5C 91.3094,296.071 91.6427,297.738 91.5,299.5C 90.8333,299.5 90.1667,299.5 89.5,299.5C 89.7725,297.042 88.7725,295.375 86.5,294.5C 84.2324,295.544 81.8991,295.711 79.5,295C 83.4211,293.253 84.4211,290.419 82.5,286.5C 83.5,285.667 84.5,284.833 85.5,284C 83.4233,283.808 81.4233,283.308 79.5,282.5C 82.7683,281.513 86.1016,281.18 89.5,281.5C 89.5751,278.794 89.9084,276.127 90.5,273.5C 88.396,273.799 86.396,273.466 84.5,272.5C 88.3747,271.461 91.2081,269.128 93,265.5C 94.3994,256.275 93.0661,247.609 89,239.5C 86.1302,231.804 87.1302,224.804 92,218.5C 101.848,208.486 113.681,203.32 127.5,203C 130.746,205.1 134.08,206.933 137.5,208.5 Z"/></g>
<g><path style="opacity:1" fill="#e8cce5" d="M 203.5,233.5 C 204.622,235.288 204.789,237.288 204,239.5C 203.145,243.29 201.978,246.956 200.5,250.5C 199.374,246.251 197.707,242.251 195.5,238.5C 198.867,237.823 201.534,236.157 203.5,233.5 Z"/></g>
<g><path style="opacity:1" fill="#f4c8e7" d="M 171.5,205.5 C 171.917,204.876 172.584,204.543 173.5,204.5C 185.37,208.532 195.87,214.865 205,223.5C 205.264,228.966 202.931,232.966 198,235.5C 196.775,235.138 195.609,234.638 194.5,234C 186.465,224.744 178.799,215.244 171.5,205.5 Z"/></g>
<g><path style="opacity:1" fill="#bee0e0" d="M 122.5,209.5 C 126.416,208.961 129.416,210.294 131.5,213.5C 125.729,214.883 120.729,217.55 116.5,221.5C 115.624,221.631 114.957,221.298 114.5,220.5C 117.191,216.815 119.858,213.148 122.5,209.5 Z"/></g>
<g><path style="opacity:1" fill="#f5c8e7" d="M 119.5,204.5 C 120.978,204.238 122.311,204.571 123.5,205.5C 123.333,205.833 123.167,206.167 123,206.5C 117.078,214.763 110.745,222.763 104,230.5C 98.6968,236.177 94.3635,235.511 91,228.5C 90.3131,226.432 90.4798,224.432 91.5,222.5C 99.99,214.938 109.323,208.938 119.5,204.5 Z"/></g>
<g><path style="opacity:1" fill="#c4e9ea" d="M 172.5,209.5 C 175.223,212.586 177.723,215.92 180,219.5C 180.688,220.332 180.521,220.998 179.5,221.5C 175.299,218.9 170.966,216.566 166.5,214.5C 166.389,213.883 166.056,213.383 165.5,213C 167.309,210.762 169.642,209.595 172.5,209.5 Z"/></g>
<g><path style="opacity:1" fill="#ecc4e3" d="M 131.5,213.5 C 129.416,210.294 126.416,208.961 122.5,209.5C 123.696,206.779 125.696,205.613 128.5,206C 131.603,207.281 134.269,209.114 136.5,211.5C 135.332,213.217 133.665,213.884 131.5,213.5 Z"/></g>
<g><path style="opacity:1" fill="#e6c5df" d="M 172.5,209.5 C 169.642,209.595 167.309,210.762 165.5,213C 166.056,213.383 166.389,213.883 166.5,214.5C 164.199,213.94 161.866,213.44 159.5,213C 158.167,212 158.167,211 159.5,210C 162.042,208.23 164.709,206.73 167.5,205.5C 169.761,206.095 171.428,207.429 172.5,209.5 Z"/></g>
<g><path style="opacity:1" fill="#e0bed4" d="M 90.5,232.5 C 92.5732,235.716 95.5732,237.716 99.5,238.5C 97.2752,242.281 95.6085,246.281 94.5,250.5C 92.1363,244.739 90.803,238.739 90.5,232.5 Z"/></g>
<g><path style="opacity:1" fill="#f7c8e9" d="M 147.5,213.5 C 157.466,213.824 166.799,216.324 175.5,221C 192.148,231.888 200.315,247.388 200,267.5C 201.022,268.354 201.855,269.354 202.5,270.5C 200.131,272.682 197.465,274.349 194.5,275.5C 192.004,274.42 189.67,273.086 187.5,271.5C 184.503,274.162 183.169,277.495 183.5,281.5C 180.833,281.5 178.167,281.5 175.5,281.5C 175.336,284.187 175.503,286.854 176,289.5C 177.643,291.977 179.476,294.31 181.5,296.5C 179.668,297.057 178.335,298.057 177.5,299.5C 167.5,299.5 157.5,299.5 147.5,299.5C 147.5,298.167 147.5,296.833 147.5,295.5C 150.711,294.987 153.544,293.654 156,291.5C 158.245,287.113 159.411,282.446 159.5,277.5C 155.258,276.438 151.258,274.771 147.5,272.5C 147.5,252.833 147.5,233.167 147.5,213.5 Z"/></g>
<g><path style="opacity:1" fill="#524a52" d="M 158.5,255.5 C 168.833,255.5 179.167,255.5 189.5,255.5C 189.63,269.874 182.63,276.374 168.5,275C 160.316,271.135 156.983,264.635 158.5,255.5 Z"/></g>
<g><path style="opacity:1" fill="#eff0f0" d="M 166.5,257.5 C 165.389,263.286 167.722,266.619 173.5,267.5C 178.818,266.191 181.485,262.858 181.5,257.5C 183.5,257.5 185.5,257.5 187.5,257.5C 188.205,267.465 183.539,272.798 173.5,273.5C 164.279,272.273 159.612,266.939 159.5,257.5C 161.833,257.5 164.167,257.5 166.5,257.5 Z"/></g>
<g><path style="opacity:1" fill="#176666" d="M 166.5,257.5 C 171.5,257.5 176.5,257.5 181.5,257.5C 181.485,262.858 178.818,266.191 173.5,267.5C 167.722,266.619 165.389,263.286 166.5,257.5 Z"/></g>
<g><path style="opacity:1" fill="#ca08c9" d="M 147.5,213.5 C 147.5,233.167 147.5,252.833 147.5,272.5C 133.154,276.569 131.487,283.903 142.5,294.5C 144.071,295.309 145.738,295.643 147.5,295.5C 147.5,296.833 147.5,298.167 147.5,299.5C 137.167,299.5 126.833,299.5 116.5,299.5C 115.791,298.596 114.791,298.263 113.5,298.5C 114.8,295.243 116.634,292.243 119,289.5C 119.497,286.854 119.664,284.187 119.5,281.5C 117.143,281.663 114.81,281.497 112.5,281C 111.507,277.499 109.84,274.333 107.5,271.5C 103.934,274.539 99.9342,275.205 95.5,273.5C 91.9166,272.104 91.7499,270.437 95,268.5C 96.0918,262.218 96.7585,255.884 97,249.5C 99.8666,241.844 103.7,234.844 108.5,228.5C 109.5,228.5 110.5,228.5 111.5,228.5C 112.702,225.944 114.369,223.611 116.5,221.5C 120.967,220.172 125.3,218.338 129.5,216C 135.365,214.212 141.365,213.379 147.5,213.5 Z"/></g>
<g><path style="opacity:1" fill="#5b485c" d="M 136.5,263.5 C 136.229,265.312 135.562,266.978 134.5,268.5C 132.674,270.91 130.34,272.577 127.5,273.5C 118.683,277.847 112.016,275.514 107.5,266.5C 106.676,263.236 106.342,259.902 106.5,256.5C 116.5,256.5 126.5,256.5 136.5,256.5C 136.5,258.833 136.5,261.167 136.5,263.5 Z"/></g>
<g><path style="opacity:1" fill="#e9eded" d="M 114.5,257.5 C 114.786,267.372 119.119,269.706 127.5,264.5C 128.374,262.253 128.708,259.92 128.5,257.5C 130.833,257.5 133.167,257.5 135.5,257.5C 135.662,259.527 135.495,261.527 135,263.5C 133.053,267.276 130.553,270.61 127.5,273.5C 114.541,275.865 107.874,270.532 107.5,257.5C 109.833,257.5 112.167,257.5 114.5,257.5 Z"/></g>
<g><path style="opacity:1" fill="#1c6666" d="M 114.5,257.5 C 119.167,257.5 123.833,257.5 128.5,257.5C 128.708,259.92 128.374,262.253 127.5,264.5C 119.119,269.706 114.786,267.372 114.5,257.5 Z"/></g>
<g><path style="opacity:1" fill="#702f6c" d="M 136.5,263.5 C 136.5,261.167 136.5,258.833 136.5,256.5C 126.5,256.5 116.5,256.5 106.5,256.5C 106.342,259.902 106.676,263.236 107.5,266.5C 106.883,266.389 106.383,266.056 106,265.5C 105.502,262.183 105.335,258.85 105.5,255.5C 116.167,255.5 126.833,255.5 137.5,255.5C 137.806,258.385 137.473,261.052 136.5,263.5 Z"/></g>
<g><path style="opacity:1" fill="#703f6b" d="M 147.5,272.5 C 151.258,274.771 155.258,276.438 159.5,277.5C 159.411,282.446 158.245,287.113 156,291.5C 153.544,293.654 150.711,294.987 147.5,295.5C 145.738,295.643 144.071,295.309 142.5,294.5C 131.487,283.903 133.154,276.569 147.5,272.5 Z"/></g>
<g><path style="opacity:1" fill="#bbcec6" d="M 153.5,277.5 C 157.029,278.03 157.362,279.363 154.5,281.5C 153.571,280.311 153.238,278.978 153.5,277.5 Z"/></g>
<g><path style="opacity:1" fill="#f54fc1" d="M 139.5,281.5 C 139.517,283.028 140.184,283.528 141.5,283C 142.414,276.209 146.081,274.042 152.5,276.5C 152.5,278.833 152.5,281.167 152.5,283.5C 154.451,283.773 155.951,283.107 157,281.5C 156.91,290.585 152.41,294.085 143.5,292C 139.18,289.38 137.346,285.546 138,280.5C 138.383,281.056 138.883,281.389 139.5,281.5 Z"/></g>
<g><path style="opacity:1" fill="#ccd6d2" d="M 139.5,281.5 C 139.461,280.417 139.127,279.417 138.5,278.5C 139.325,277.614 140.325,277.281 141.5,277.5C 141.843,279.483 141.176,280.817 139.5,281.5 Z"/></g>
<g><path style="opacity:1" fill="#edcee7" d="M 203.5,299.5 C 197.167,299.5 190.833,299.5 184.5,299.5C 183.918,295.887 182.085,292.887 179,290.5C 177.1,285.087 178.933,282.753 184.5,283.5C 184.504,275.038 187.837,273.371 194.5,278.5C 202.286,274.271 205.286,276.604 203.5,285.5C 206.571,284.925 208.571,286.091 209.5,289C 208.372,291.296 206.705,293.129 204.5,294.5C 203.691,296.071 203.357,297.738 203.5,299.5 Z"/></g>
<g><path style="opacity:1" fill="#c9fbfc" d="M 192.5,286.5 C 193.833,286.5 195.167,286.5 196.5,286.5C 196.585,288.929 197.585,290.929 199.5,292.5C 199.291,293.086 198.957,293.586 198.5,294C 194.891,293.762 191.225,293.595 187.5,293.5C 187.002,289.465 188.669,287.131 192.5,286.5 Z"/></g>
<g><path style="opacity:1" fill="#eccfe9" d="M 110.5,299.5 C 104.167,299.5 97.8333,299.5 91.5,299.5C 91.6427,297.738 91.3094,296.071 90.5,294.5C 88.1097,293.109 86.4431,291.109 85.5,288.5C 86.7118,286.077 88.7118,285.077 91.5,285.5C 90.0989,276.027 93.2656,273.693 101,278.5C 107.129,273.895 110.295,275.562 110.5,283.5C 112.199,283.34 113.866,283.506 115.5,284C 116.081,284.893 116.415,285.893 116.5,287C 115.549,290.402 113.715,293.236 111,295.5C 110.51,296.793 110.343,298.127 110.5,299.5 Z"/></g>
<g><path style="opacity:1" fill="#ccfafb" d="M 97.5,285.5 C 103.224,285.227 106.557,287.894 107.5,293.5C 103.5,293.5 99.5,293.5 95.5,293.5C 95.5838,290.673 96.2504,288.006 97.5,285.5 Z"/></g>
<g><path style="opacity:1" fill="#2b5d88" d="M 206.5,281.5 C 209.5,281.5 212.5,281.5 215.5,281.5C 214.878,284.849 213.544,288.349 211.5,292C 212.444,293.477 213.777,294.477 215.5,295C 212.779,295.602 210.113,295.435 207.5,294.5C 212.602,289.422 212.269,285.089 206.5,281.5 Z"/></g>
</svg>
